# AST/ASF file generated using VICON BodyLanguage
# -----------------------------------------------
:version 1.10
:name VICON
:units
  mass 1.0
  length 0.45
  angle deg
:documentation
   .ast/.asf automatically generated from VICON data using
   VICON BodyBuilder and BodyLanguage model FoxedUp or BRILLIANT.MOD
:root
   order TX TY TZ RX RY RZ
   axis XYZ
   position 0 0 0  
   orientation 0 0 0 
:bonedata
  begin
     id 1 
     name lhipjoint
     direction 0.567725 -0.736092 0.368589 
     length 2.42353 
     axis 0 0 0  XYZ
  end
  begin
     id 2 
     name lfemur
     direction 0.34202 -0.939693 0  
     length 7.24894  
     axis 0 0 20  XYZ
    dof rx ry rz
    limits (-160.0 20.0)
           (-70.0 70.0)
           (-60.0 70.0)
  end
  begin
     id 3 
     name ltibia
     direction 0.34202 -0.939693 0   
     length 7.6997   
     axis 0 0 20   XYZ
    dof rx
    limits (-10.0 170.0)
  end
  begin
     id 4 
     name lfoot
     direction 0.100767 -0.276854 0.955614   
     length 2.37556   
     axis -90 7.62852e-016 20   XYZ
    dof rx rz
    limits (-45.0 90.0)
           (-70.0 20.0)
  end
  begin
     id 5 
     name ltoes
     direction 1.53592e-011 -4.21894e-011 1   
     length 1.18363   
     axis -90 7.62852e-016 20   XYZ
    dof rx
    limits (-90.0 20.0)
  end
  begin
     id 6 
     name rhipjoint
     direction -0.556459 -0.742938 0.372017   
     length 2.4012  
     axis 0 0 0  XYZ 
  end
  begin
     id 7 
     name rfemur
     direction -0.34202 -0.939693 0   
     length 7.5119   
     axis 0 0 -20   XYZ
    dof rx ry rz
    limits (-160.0 20.0)
           (-70.0 70.0)
           (-70.0 60.0)
  end
  begin
     id 8 
     name rtibia
     direction -0.34202 -0.939693 0   
     length 7.50155   
     axis 0 0 -20   XYZ
    dof rx
    limits (-10.0 170.0)
 end
 begin
     id 9 
     name rfoot
     direction -0.118427 -0.325376 0.938139   
     length 2.32487  
     axis -90 -7.62852e-016 -20   XYZ
    dof rx rz
    limits (-45.0 90.0)
           (-20.0 70.0)
  end
  begin
     id 10 
     name rtoes
     direction -1.53525e-011 -4.21868e-011 1   
     length 1.15233   
     axis -90 -7.62852e-016 -20   XYZ
    dof rx
    limits (-90.0 20.0)
  end
  begin
     id 11 
     name lowerback
     direction 0.0287568 0.999577 -0.00434502   
     length 2.15243   
     axis 0 0 0   XYZ
    dof rx ry rz
    limits (-20.0 45.0)
           (-30.0 30.0)
           (-30.0 30.0)
  end
  begin
     id 12 
     name upperback
     direction 0.0294009 0.99956 0.00404628   
     length 2.15427   
     axis 0 0 0   XYZ
    dof rx ry rz
    limits (-20.0 45.0)
           (-30.0 30.0)
           (-30.0 30.0)
  end
  begin
     id 13 
     name thorax
     direction 0.0151014 0.999868 0.0059419   
     length 2.14898   
     axis 0 0 0   XYZ
    dof rx ry rz
    limits (-20.0 45.0)
           (-30.0 30.0)
           (-30.0 30.0)
  end
  begin
     id 14 
     name lowerneck
     direction -0.0249197 0.989906 0.139515   
     length 1.6861   
     axis 0 0 0   XYZ
    dof rx ry rz
    limits (-20.0 45.0)
           (-30.0 30.0)
           (-30.0 30.0)
  end
  begin
     id 15 
     name upperneck
     direction 0.0438463 0.988795 -0.142693   
     length 1.71276   
     axis 0 0 0   XYZ
    dof rx ry rz
    limits (-20.0 45.0)
           (-30.0 30.0)
           (-30.0 30.0)
  end
  begin
     id 16
     name head
     direction 0.0148499 0.997845 -0.0639186  
     length 1.7209  
     axis 0 0 0   XYZ
    dof rx ry rz
    limits (-20.0 45.0)
           (-30.0 30.0)
           (-30.0 30.0)
  end
  begin
     id 17 
     name lclavicle
     direction 0.940298 0.323464 -0.105876  
     length 3.9048  
     axis 0 0 0   XYZ
    dof ry rz
    limits (-20.0 10.0)
           (0.0 20.0)
  end
  begin
     id 18 
     name lhumerus
     direction 1 -4.48954e-011 -4.9675e-028   
     length 4.6851   
     axis 180 -30 -90   XYZ
    dof rx ry rz
    limits (-60.0 90.0)
           (-90.0 90.0)
           (-90.0 90.0)
  end
  begin
     id 19
     name lradius
     direction 1 -4.48992e-011 -1.03359e-026   
     length 3.39626   
     axis 180 -30 -90   XYZ
    dof rx
    limits (-10.0 170.0)
  end
  begin
     id 20
     name lwrist
     direction 1 -4.48906e-011 -1.67336e-026   
     length 1.69813   
     axis 9.90442e-015 90 90   XYZ
    dof ry
    limits (-180.0 0.0)
 end
  begin
     id 21 
     name lhand
     direction 1 -4.49006e-011 -3.34673e-026   
     length 0.486078   
     axis 2.1355e-014 90 90   XYZ
    dof rx rz
    limits (-90.0 90.0)
           (-45.0 45.0)
  end
  begin
     id 22 
     name lfingers
     direction 1 -4.48992e-011 -6.69345e-026   
     length 0.391889   
     axis 4.27099e-014 90 90   XYZ
    dof rx
    limits (0.0 90.0)
  end
  begin
     id 23
     name lthumb
     direction 0.707107 -6.34926e-011 0.707107   
     length 0.562676   
     axis -90 45 2.85299e-015   XYZ
    dof rx rz
    limits (-45.0 45.0)
           (-45.0 45.0)
  end
  begin
     id 24 
     name rclavicle
     direction -0.882459 0.414895 -0.221648   
     length 3.44646  
     axis 0 0 0   XYZ 
    dof ry rz
    limits (-10.0 20.0)
           (-20.0 0.0)
  end
  begin
     id 25 
     name rhumerus
     direction -1 -4.48962e-011 -2.37984e-027  
     length 5.55576   
     axis 180 30 90   XYZ
    dof rx ry rz
    limits (-90.0 60.0)
           (-90.0 90.0)
           (-90.0 90.0)
  end
  begin
     id 26 
     name rradius
     direction -1 -4.48982e-011 -6.86791e-027   
     length 3.32774   
     axis 180 30 90   XYZ
    dof rx
    limits (-10.0 170.0)
  end
  begin
     id 27 
     name rwrist
     direction -1 -4.48961e-011 -1.67336e-026   
     length 1.66387   
     axis 9.90442e-015 -90 -90   XYZ
    dof ry
    limits (-180.0 0.0)
  end
  begin
     id 28
     name rhand
     direction -1 -4.4897e-011 -3.34673e-026   
     length 0.507628   
     axis 2.1355e-014 -90 -90   XYZ
    dof rx rz
    limits (-90.0 90.0)
           (-45.0 45.0)
  end
  begin
     id 29
     name rfingers
     direction -1 -4.48854e-011 -6.69345e-026   
     length 0.409263   
     axis 4.27099e-014 -90 -90   XYZ
    dof rx
    limits (0.0 90.0)
  end
  begin
     id 30
     name rthumb
     direction -0.707107 -6.34913e-011 0.707107   
     length 0.587622   
     axis -90 -45 -2.85299e-015   XYZ
    dof rx rz
    limits (-45.0 45.0)
           (-45.0 45.0)
  end
:hierarchy
  begin
    root lhipjoint rhipjoint lowerback
    lhipjoint lfemur
    lfemur ltibia
    ltibia lfoot
    lfoot ltoes
    rhipjoint rfemur
    rfemur rtibia
    rtibia rfoot
    rfoot rtoes
    lowerback upperback
    upperback thorax
    thorax lowerneck lclavicle rclavicle
    lowerneck upperneck
    upperneck head
    lclavicle lhumerus
    lhumerus lradius
    lradius lwrist
    lwrist lhand lthumb
    lhand lfingers
    rclavicle rhumerus
    rhumerus rradius
    rradius rwrist
    rwrist rhand rthumb
    rhand rfingers
  end

#!OML:ASF E:\motion texture\Top Level 1\Subject 1\Session 1\male.ASF
:FULLY-SPECIFIED
:DEGREES
20
root 40.9619 17.2609 5.22907 99.1236 -81.5234 -86.1871
lowerback -1.10559 1.83378 7.61438
upperback -0.919889 2.33032 2.03791
thorax -0.109941 1.11313 -2.13103
lowerneck -22.3861 -1.5458 -6.70436
upperneck 13.4643 -1.2446 6.51936
head 7.89561 -0.275769 3.12031
rclavicle 6.70743e-015 4.57205e-015
rhumerus -20.9931 14.2023 -89.8698
rradius 47.5849
rwrist 10.5712
rhand -14.3407 -26.3269
rfingers 7.12502
rthumb 11.8006 -55.9744
lclavicle 6.70743e-015 4.57205e-015
lhumerus -32.9774 14.8964 81.622
lradius 42.187
lwrist -13.142
lhand -9.16157 23.9537
lfingers 7.12502
lthumb 16.7909 53.2477
rfemur -1.83664 2.93266 33.0246
rtibia 13.884
rfoot -21.7746 -11.6536
rtoes 17.2305
lfemur -40.514 -0.347904 -1.66214
ltibia 18.2212
lfoot -0.557852 9.28741
ltoes -14.2776
21
root 40.7432 17.2545 5.27861 98.3593 -81.7743 -85.6033
lowerback -0.931889 1.84535 7.29333
upperback -0.917209 2.37233 1.83651
thorax -0.204985 1.13552 -2.16588
lowerneck -22.1628 -1.59562 -6.56975
upperneck 13.2547 -1.39962 6.72127
head 7.80092 -0.325256 3.14234
rclavicle -1.79155e-014 5.04913e-014
rhumerus -20.8017 14.2629 -90.156
rradius 47.8619
rwrist 10.9413
rhand -15.0304 -26.0915
rfingers 7.12502
rthumb 11.1354 -55.7761
lclavicle -1.79155e-014 5.04913e-014
lhumerus -31.9875 13.793 82.3467
lradius 42.3527
lwrist -13.4793
lhand -9.40221 24.1226
lfingers 7.12502
lthumb 16.5592 53.4361
rfemur -1.65308 3.10726 32.5964
rtibia 15.3666
rfoot -21.2805 -11.8869
rtoes 13.6945
lfemur -41.6161 1.69669 -4.19093
ltibia 25.9956
lfoot -1.03262 6.39928
ltoes -16.3574
22
root 40.6314 17.2432 5.28923 98.6016 -81.8091 -85.747
lowerback -0.95343 1.90243 7.30281
upperback -0.932933 2.44884 1.74671
thorax -0.197983 1.17416 -2.26179
lowerneck -22.215 -1.62299 -6.56088
upperneck 13.1705 -1.44249 6.76934
head 7.785 -0.33959 3.15074
rclavicle 2.10588e-014 9.59136e-015
rhumerus -20.6977 14.5755 -90.2605
rradius 48.4171
rwrist 11.1123
rhand -15.0801 -26.0139
rfingers 7.12502
rthumb 11.0875 -55.701
lclavicle 2.10588e-014 9.59136e-015
lhumerus -31.939 13.5369 82.4135
lradius 42.6843
lwrist -13.3101
lhand -9.47186 24.2858
lfingers 7.12502
lthumb 16.4922 53.6048
rfemur -1.46372 3.08203 32.4954
rtibia 15.5484
rfoot -21.342 -11.8141
rtoes 13.1153
lfemur -41.6082 1.42939 -4.07853
ltibia 25.3149
lfoot -0.920283 6.47647
ltoes -15.5566
23
root 40.5172 17.2328 5.30061 98.8201 -81.849 -85.8733
lowerback -0.9739 1.95897 7.30253
upperback -0.947386 2.52477 1.6568
thorax -0.190453 1.21262 -2.35238
lowerneck -22.2625 -1.65149 -6.55035
upperneck 13.0847 -1.48764 6.81751
head 7.76797 -0.355029 3.15855
rclavicle -3.81418e-015 -1.40143e-014
rhumerus -20.5927 14.8754 -90.3594
rradius 48.9707
rwrist 11.2873
rhand -15.1605 -25.9394
rfingers 7.12502
rthumb 11.0099 -55.6307
lclavicle -3.81418e-015 -1.40143e-014
lhumerus -31.8708 13.2627 82.4988
lradius 43.007
lwrist -13.1578
lhand -9.55116 24.4449
lfingers 7.12502
lthumb 16.4158 53.7702
rfemur -1.29407 3.04291 32.3802
rtibia 15.7848
rfoot -21.3672 -11.7275
rtoes 12.4582
lfemur -41.5906 1.16334 -3.9845
ltibia 24.7176
lfoot -0.823805 6.53383
ltoes -14.754
24
root 40.4007 17.2233 5.31278 98.9812 -81.8926 -85.949
lowerback -0.992801 2.01331 7.29521
upperback -0.960672 2.5979 1.56711
thorax -0.182935 1.24975 -2.43887
lowerneck -22.3066 -1.68127 -6.53916
upperneck 12.9985 -1.53517 6.86718
head 7.75044 -0.371525 3.16643
rclavicle 3.07371e-014 1.28216e-014
rhumerus -20.4857 15.1616 -90.4531
rradius 49.5226
rwrist 11.4616
rhand -15.2617 -25.869
rfingers 7.12502
rthumb 10.9123 -55.5654
lclavicle 3.07371e-014 1.28216e-014
lhumerus -31.7831 12.9682 82.6035
lradius 43.321
lwrist -13.0219
lhand -9.6374 24.6061
lfingers 7.12502
lthumb 16.3328 53.9383
rfemur -1.1474 2.98555 32.2524
rtibia 16.0789
rfoot -21.3573 -11.6265
rtoes 11.7422
lfemur -41.5646 0.901837 -3.9125
ltibia 24.2042
lfoot -0.742079 6.56509
ltoes -13.9546
25
root 40.2819 17.2149 5.32571 99.1128 -81.9382 -86.0022
lowerback -1.00915 2.06643 7.28207
upperback -0.97357 2.66966 1.47813
thorax -0.176656 1.28619 -2.52148
lowerneck -22.3455 -1.71171 -6.52677
upperneck 12.9116 -1.5844 6.91786
head 7.732 -0.388806 3.17419
rclavicle -6.98231e-015 -1.14301e-014
rhumerus -20.3794 15.4359 -90.5431
rradius 50.0711
rwrist 11.6447
rhand -15.3819 -25.7988
rfingers 7.12502
rthumb 10.7964 -55.5013
lclavicle -6.98231e-015 -1.14301e-014
lhumerus -31.6783 12.6536 82.7265
lradius 43.6264
lwrist -12.9008
lhand -9.72896 24.7668
lfingers 7.12502
lthumb 16.2446 54.1062
rfemur -1.02797 2.91041 32.1127
rtibia 16.4363
rfoot -21.3072 -11.5091
rtoes 10.9774
lfemur -41.5279 0.650105 -3.86137
ltibia 23.7727
lfoot -0.674017 6.57142
ltoes -13.1588
26
root 40.1609 17.2077 5.33942 99.1831 -81.9882 -86.0005
lowerback -1.02715 2.11663 7.25827
upperback -0.984353 2.73732 1.39146
thorax -0.168056 1.32076 -2.59572
lowerneck -22.3812 -1.74317 -6.51252
upperneck 12.8254 -1.63529 6.96606
head 7.71334 -0.407131 3.18058
rclavicle 5.53367e-014 1.55052e-014
rhumerus -20.2709 15.6985 -90.6263
rradius 50.6167
rwrist 11.8302
rhand -15.5167 -25.7285
rfingers 7.12502
rthumb 10.6663 -55.4378
lclavicle 5.53367e-014 1.55052e-014
lhumerus -31.5544 12.3187 82.8721
lradius 43.924
lwrist -12.7924
lhand -9.82792 24.9275
lfingers 7.12502
lthumb 16.1493 54.2747
rfemur -0.939364 2.81209 31.958
rtibia 16.8578
rfoot -21.2097 -11.3773
rtoes 10.1652
lfemur -41.4824 0.407614 -3.83704
ltibia 23.4229
lfoot -0.621969 6.54837
ltoes -12.3634
27
root 40.0378 17.2017 5.35387 99.1965 -82.0426 -85.9504
lowerback -1.04083 2.16509 7.22768
upperback -0.994779 2.80311 1.30485
thorax -0.161856 1.35436 -2.6663
lowerneck -22.414 -1.77593 -6.50181
upperneck 12.7423 -1.68875 7.023
head 7.69562 -0.426094 3.19021
rclavicle -2.36305e-014 -3.27995e-015
rhumerus -20.1647 15.9478 -90.7055
rradius 51.1619
rwrist 12.0176
rhand -15.6776 -25.6578
rfingers 7.12502
rthumb 10.5112 -55.375
lclavicle -2.36305e-014 -3.27995e-015
lhumerus -31.4135 11.9595 83.0376
lradius 44.212
lwrist -12.6971
lhand -9.93092 25.0827
lfingers 7.12502
lthumb 16.0502 54.4379
rfemur -0.883179 2.69254 31.7888
rtibia 17.3478
rfoot -21.0533 -11.2353
rtoes 9.31761
lfemur -41.4246 0.177983 -3.84143
ltibia 23.1513
lfoot -0.585695 6.49541
ltoes -11.5747
28
root 39.9125 17.1969 5.36948 99.007 -82.1062 -85.7012
lowerback -1.0585 2.20428 7.19335
upperback -1.00538 2.85624 1.21702
thorax -0.154841 1.38169 -2.73612
lowerneck -22.4425 -1.8089 -6.4908
upperneck 12.6616 -1.74347 7.08303
head 7.67817 -0.445453 3.20068
rclavicle 3.25013e-014 3.73715e-014
rhumerus -20.0614 16.186 -90.7813
rradius 51.7088
rwrist 12.2066
rhand -15.8153 -25.6025
rfingers 7.12502
rthumb 10.3784 -55.3264
lclavicle 3.25013e-014 3.73715e-014
lhumerus -31.2568 11.5754 83.2233
lradius 44.4926
lwrist -12.6106
lhand -10.0389 25.2358
lfingers 7.12502
lthumb 15.9462 54.5994
rfemur -0.865368 2.53563 31.5989
rtibia 17.9041
rfoot -20.8366 -11.0874
rtoes 8.43926
lfemur -41.3683 -0.0541926 -3.88465
ltibia 22.9611
lfoot -0.563548 6.4065
ltoes -10.8029
29
root 39.785 17.1934 5.38583 98.731 -82.1757 -85.376
lowerback -1.07196 2.23905 7.15122
upperback -1.01471 2.90388 1.12925
thorax -0.1497 1.4063 -2.80179
lowerneck -22.462 -1.84284 -6.47213
upperneck 12.5781 -1.80065 7.13464
head 7.65832 -0.466643 3.20664
rclavicle 3.10601e-015 2.38542e-015
rhumerus -19.9582 16.4122 -90.855
rradius 52.2521
rwrist 12.3987
rhand -15.9555 -25.5414
rfingers 7.12502
rthumb 10.2431 -55.272
lclavicle 3.10601e-015 2.38542e-015
lhumerus -31.0843 11.1663 83.4282
lradius 44.7649
lwrist -12.5328
lhand -10.1497 25.3881
lfingers 7.12502
lthumb 15.8395 54.7601
rfemur -0.881824 2.35423 31.3925
rtibia 18.5325
rfoot -20.5556 -10.9369
rtoes 7.53465
lfemur -41.2954 -0.273113 -3.96122
ltibia 22.8415
lfoot -0.562034 6.28476
ltoes -10.0454
30
root 39.6556 17.1913 5.40284 98.3884 -82.2518 -84.994
lowerback -1.08248 2.26991 7.10026
upperback -1.02244 2.94659 1.04122
thorax -0.145396 1.42851 -2.86298
lowerneck -22.477 -1.87637 -6.45177
upperneck 12.4967 -1.85838 7.18789
head 7.63857 -0.487987 3.21281
rclavicle -1.68967e-014 -2.88238e-014
rhumerus -19.8543 16.6312 -90.9275
rradius 52.7927
rwrist 12.591
rhand -16.1081 -25.4661
rfingers 7.12502
rthumb 10.0958 -55.2039
lclavicle -1.68967e-014 -2.88238e-014
lhumerus -30.8964 10.7308 83.6519
lradius 45.0297
lwrist -12.4597
lhand -10.2646 25.5349
lfingers 7.12502
lthumb 15.7288 54.9157
rfemur -0.936043 2.15199 31.1693
rtibia 19.2363
rfoot -20.2099 -10.7944
rtoes 6.59983
lfemur -41.2042 -0.474579 -4.07253
ltibia 22.7889
lfoot -0.583664 6.1319
ltoes -9.30828
31
root 39.5242 17.1906 5.42047 97.9677 -82.3347 -84.5419
lowerback -1.09181 2.29649 7.04032
upperback -1.02915 2.98371 0.953006
thorax -0.141632 1.44798 -2.91952
lowerneck -22.4891 -1.90982 -6.43113
upperneck 12.4199 -1.9168 7.24334
head 7.61997 -0.509522 3.21965
rclavicle 7.15625e-015 7.35503e-015
rhumerus -19.7498 16.8433 -90.9986
rradius 53.3313
rwrist 12.7826
rhand -16.2453 -25.4006
rfingers 7.12502
rthumb 9.96352 -55.1447
lclavicle 7.15625e-015 7.35503e-015
lhumerus -30.6936 10.2662 83.8948
lradius 45.2874
lwrist -12.3897
lhand -10.3795 25.6741
lfingers 7.12502
lthumb 15.6182 55.0636
rfemur -1.03343 1.92705 30.929
rtibia 20.0187
rfoot -19.8044 -10.6577
rtoes 5.65733
lfemur -41.0963 -0.658509 -4.219
ltibia 22.7963
lfoot -0.624128 5.94914
ltoes -8.59388
32
root 39.391 17.1912 5.43865 97.4492 -82.4263 -83.9986
lowerback -1.10076 2.31776 6.9691
upperback -1.03566 3.0139 0.864351
thorax -0.139088 1.46401 -2.9704
lowerneck -22.4955 -1.94298 -6.40693
upperneck 12.3456 -1.97593 7.29679
head 7.60129 -0.531564 3.22514
rclavicle -1.73937e-015 -1.86858e-014
rhumerus -19.6446 17.0488 -91.0689
rradius 53.867
rwrist 12.9747
rhand -16.388 -25.332
rfingers 7.12502
rthumb 9.82582 -55.0827
lclavicle -1.73937e-015 -1.86858e-014
lhumerus -30.4772 9.77182 84.1566
lradius 45.5387
lwrist -12.3194
lhand -10.5004 25.8127
lfingers 7.12502
lthumb 15.5018 55.2112
rfemur -1.17795 1.67644 30.67
rtibia 20.8797
rfoot -19.3396 -10.5316
rtoes 4.71647
lfemur -40.9736 -0.82829 -4.4011
ltibia 22.8612
lfoot -0.687512 5.73659
ltoes -7.89633
33
root 39.2562 17.1931 5.45737 96.824 -82.5261 -83.3577
lowerback -1.10734 2.33329 6.88757
upperback -1.04073 3.03666 0.775299
thorax -0.137598 1.47639 -3.01618
lowerneck -22.4967 -1.97511 -6.37958
upperneck 12.2737 -2.03482 7.34944
head 7.58254 -0.55356 3.22989
rclavicle 1.76421e-014 5.56597e-015
rhumerus -19.537 17.2491 -91.1382
rradius 54.3996
rwrist 13.1661
rhand -16.5276 -25.2545
rfingers 7.12502
rthumb 9.69118 -55.0116
lclavicle 1.76421e-014 5.56597e-015
lhumerus -30.2466 9.2476 84.4365
lradius 45.7827
lwrist -12.2502
lhand -10.6256 25.9471
lfingers 7.12502
lthumb 15.3811 55.355
rfemur -1.36882 1.39948 30.3925
rtibia 21.8201
rfoot -18.8178 -10.4219
rtoes 3.80349
lfemur -40.8303 -0.984568 -4.61842
ltibia 22.9754
lfoot -0.773668 5.49852
ltoes -7.22477
